<svg width="800" height="600" viewBox="0 0 800 600" fill="none" xmlns="http://www.w3.org/2000/svg">
  <rect width="800" height="600" fill="#F6F8FE"/>
  <circle cx="132" cy="142" r="58" fill="#E9F7FF"/>
  <circle cx="670" cy="470" r="72" fill="#EEE8FF"/>
  <rect x="180" y="130" width="440" height="340" rx="32" fill="white"/>
  <rect x="220" y="175" width="220" height="250" rx="24" fill="#EEF2FF"/>
  <rect x="240" y="210" width="180" height="120" rx="16" fill="#DDE5FF"/>
  <path d="M260 315l28-35 22 20 20-26 22 41h-92z" fill="#4F7CFF"/>
  <circle cx="272" cy="235" r="10" fill="#B8C8FF"/>
  <rect x="250" y="350" width="120" height="14" rx="7" fill="#C7D2FE"/>
  <rect x="250" y="376" width="90" height="14" rx="7" fill="#D7E0FF"/>
  <rect x="470" y="215" width="110" height="170" rx="24" fill="#F2F5FF"/>
  <rect x="492" y="250" width="66" height="8" rx="4" fill="#D0DBFF"/>
  <rect x="492" y="270" width="46" height="8" rx="4" fill="#DCE5FF"/>
  <circle cx="525" cy="346" r="24" fill="#4F7CFF"/>
  <path d="M525 333v26M512 346h26" stroke="white" stroke-width="6" stroke-linecap="round"/>
  <path d="M440 300h24" stroke="#8EA6FF" stroke-width="6" stroke-linecap="round"/>
  <path d="M336 194c16-34 69-38 91-6" stroke="#8EA6FF" stroke-width="6" stroke-linecap="round" stroke-dasharray="8 10"/>
  <path d="M413 185l13 4-9 10" fill="#8EA6FF"/>
  <circle cx="98" cy="250" r="12" fill="#FFC2A8"/>
  <circle cx="98" cy="250" r="5" fill="#FFE2D5"/>
  <circle cx="710" cy="232" r="10" fill="#C8D8FF"/>
  <circle cx="710" cy="232" r="4" fill="#EEF4FF"/>
  <rect x="146" y="380" width="16" height="16" rx="4" transform="rotate(14 146 380)" fill="#BEEED6"/>
  <rect x="640" y="380" width="14" height="14" rx="4" transform="rotate(-18 640 380)" fill="#FFDFAE"/>
  <path d="M684 320v20M674 330h20" stroke="#8B7BFF" stroke-width="5" stroke-linecap="round"/>
  <path d="M116 318v16M108 326h16" stroke="#FF9E70" stroke-width="4" stroke-linecap="round"/>
  <path d="M664 132l6 11 12 2-9 7 2 12-11-6-11 6 2-12-9-7 12-2 6-11z" fill="#FFD88A"/>
</svg>
