<svg width="800" height="600" viewBox="0 0 800 600" fill="none" xmlns="http://www.w3.org/2000/svg">
  <rect width="800" height="600" fill="#F5F7FB"/>
  <circle cx="130" cy="110" r="50" fill="#E8EDFF"/>
  <circle cx="700" cy="510" r="64" fill="#E6F8EF"/>
  <rect x="170" y="150" width="460" height="320" rx="28" fill="white"/>
  <rect x="205" y="190" width="390" height="190" rx="18" fill="#EEF2FF"/>
  <rect x="230" y="220" width="130" height="12" rx="6" fill="#C7D2FE"/>
  <rect x="230" y="250" width="260" height="12" rx="6" fill="#DDE5FF"/>
  <rect x="230" y="280" width="210" height="12" rx="6" fill="#DDE5FF"/>
  <rect x="205" y="400" width="170" height="40" rx="20" fill="#4F7CFF"/>
  <path d="M262 418h56" stroke="white" stroke-width="8" stroke-linecap="round"/>
  <circle cx="535" cy="418" r="26" fill="#E6F8EF"/>
  <path d="M525 418l8 8 13-14" stroke="#18A058" stroke-width="6" stroke-linecap="round" stroke-linejoin="round"/>
  <g>
    <rect x="510" y="110" width="120" height="120" rx="28" fill="#4F7CFF"/>
    <path d="M560 150c-16 0-30 13-30 30v14h60v-14c0-17-14-30-30-30zm0 12c9 0 16 7 16 16v4h-32v-4c0-9 7-16 16-16z" fill="white"/>
    <circle cx="560" cy="207" r="10" fill="white"/>
  </g>
  <circle cx="88" cy="194" r="12" fill="#FFD88A"/>
  <circle cx="88" cy="194" r="5" fill="#FFF3D5"/>
  <circle cx="706" cy="168" r="10" fill="#BBD4FF"/>
  <circle cx="706" cy="168" r="4" fill="#E9F1FF"/>
  <rect x="650" y="258" width="18" height="18" rx="5" transform="rotate(-15 650 258)" fill="#FFC8B3"/>
  <rect x="126" y="420" width="14" height="14" rx="4" transform="rotate(18 126 420)" fill="#C7F0DA"/>
  <path d="M678 386v20M668 396h20" stroke="#7A8CFF" stroke-width="5" stroke-linecap="round"/>
  <path d="M110 300v16M102 308h16" stroke="#FF9E70" stroke-width="4" stroke-linecap="round"/>
  <path d="M615 454l6 12 13 2-10 8 2 12-11-6-11 6 2-12-10-8 13-2 6-12z" fill="#FFD88A"/>
</svg>
