<svg width="800" height="600" viewBox="0 0 800 600" fill="none" xmlns="http://www.w3.org/2000/svg">
  <rect width="800" height="600" fill="#F8FAFD"/>
  <circle cx="94" cy="496" r="72" fill="#FFF0E9"/>
  <circle cx="690" cy="110" r="54" fill="#EAF0FF"/>
  <rect x="160" y="120" width="480" height="360" rx="34" fill="white"/>
  <rect x="205" y="170" width="390" height="46" rx="14" fill="#EEF3FF"/>
  <circle cx="235" cy="193" r="8" fill="#4F7CFF"/>
  <rect x="255" y="186" width="160" height="14" rx="7" fill="#CAD8FF"/>
  <rect x="205" y="240" width="110" height="110" rx="18" fill="#FFEAE0"/>
  <path d="M225 325l24-30 20 18 16-22 10 34h-70z" fill="#FF9E70"/>
  <circle cx="236" cy="266" r="10" fill="#FFC9AE"/>
  <rect x="337" y="240" width="110" height="110" rx="18" fill="#EAF0FF"/>
  <path d="M350 315h84" stroke="#4F7CFF" stroke-width="10" stroke-linecap="round"/>
  <rect x="469" y="240" width="110" height="110" rx="18" fill="#E8F9EE"/>
  <circle cx="524" cy="295" r="24" fill="#31B46C"/>
  <path d="M514 295l8 8 13-14" stroke="white" stroke-width="6" stroke-linecap="round" stroke-linejoin="round"/>
  <rect x="205" y="370" width="260" height="14" rx="7" fill="#E1E8FB"/>
  <rect x="205" y="396" width="320" height="14" rx="7" fill="#E1E8FB"/>
  <rect x="205" y="422" width="190" height="14" rx="7" fill="#E1E8FB"/>
  <circle cx="120" cy="146" r="11" fill="#FFC2A8"/>
  <circle cx="120" cy="146" r="4" fill="#FFE0D1"/>
  <circle cx="662" cy="432" r="11" fill="#C7D9FF"/>
  <circle cx="662" cy="432" r="4" fill="#ECF3FF"/>
  <rect x="132" y="350" width="16" height="16" rx="4" transform="rotate(-20 132 350)" fill="#BEEED6"/>
  <rect x="628" y="260" width="14" height="14" rx="4" transform="rotate(18 628 260)" fill="#FFDFAE"/>
  <path d="M696 302v20M686 312h20" stroke="#7D91FF" stroke-width="5" stroke-linecap="round"/>
  <path d="M98 258v16M90 266h16" stroke="#FF9E70" stroke-width="4" stroke-linecap="round"/>
  <path d="M540 120l5 9 10 2-8 6 2 10-9-5-9 5 2-10-8-6 10-2 5-9z" fill="#FFD88A"/>
</svg>
